#Comment line ignore any data following # character 
#Hierarchical Translation and Rotation (.htr) file 
[Header]	
#Header keywords are followed by a single value 
FileType HTR		#Single word string
DataType HTRS		#Translation followed by rotation and scale data
FileVersion 1		#integer
NumSegments 84		#integer
NumFrames 2		#integer
DataFrameRate 30		#integer, data frame rate in this file
EulerRotationOrder ZYX
CalibrationUnits mm
RotationUnits Degrees
GlobalAxisofGravity Y
BoneLengthAxis Y
ScaleFactor 1.00
[SegmentNames&Hierarchy]
#CHILD	PARENT
MASTER GLOBAL
root MASTER
chest root
L_mid_tent01 root
R_mid_tent01 root
spine01 root
Bip01_Neck chest
L_humerus chest
R_humerus chest
weapon_bone chest
Bip01_Head Bip01_Neck
eye_left_bone Bip01_Head
eye_right_bone Bip01_Head
L_forearm L_humerus
L_front_hand L_forearm
L_weapon_bone L_forearm
L_front_hand01_01 L_front_hand
L_front_hand02_01 L_front_hand
L_front_hand03_01 L_front_hand
L_front_hand01_02 L_front_hand01_01
L_front_hand02_02 L_front_hand02_01
L_front_hand03_02 L_front_hand03_01
R_forearm R_humerus
R_front_hand R_forearm
R_weapon_bone R_forearm
R_front_hand01_01 R_front_hand
R_front_hand02_01 R_front_hand
R_front_hand03_01 R_front_hand
R_front_hand01_02 R_front_hand01_01
R_front_hand02_02 R_front_hand02_01
R_front_hand03_02 R_front_hand03_01
null_rope01_connect L_mid_tent01
Rope1_Seg01 null_rope01_connect
Rope1_Seg02 Rope1_Seg01
Rope1_Seg03 Rope1_Seg02
Rope1_Seg04 Rope1_Seg03
Rope1_Seg05 Rope1_Seg04
Rope1_Seg06 Rope1_Seg05
Rope1_Seg07 Rope1_Seg06
Rope1_Seg09 Rope1_Seg07
L_mid_hand01 Rope1_Seg09
L_mid_hand02 Rope1_Seg09
L_mid_hand03 Rope1_Seg09
null_rope02_connect R_mid_tent01
Rope2_Seg01 null_rope02_connect
Rope2_Seg02 Rope2_Seg01
Rope2_Seg03 Rope2_Seg02
Rope2_Seg04 Rope2_Seg03
Rope2_Seg05 Rope2_Seg04
Rope2_Seg06 Rope2_Seg05
Rope2_Seg07 Rope2_Seg06
Rope2_Seg09 Rope2_Seg07
R_mid_hand01 Rope2_Seg09
R_mid_hand02 Rope2_Seg09
R_mid_hand03 Rope2_Seg09
spine02 spine01
spine03 spine02
pelvis spine03
null_rope03_connect pelvis
null_rope04_connect pelvis
Rope3_Seg01 null_rope03_connect
Rope3_Seg02 Rope3_Seg01
Rope3_Seg03 Rope3_Seg02
Rope3_Seg04 Rope3_Seg03
Rope3_Seg05 Rope3_Seg04
Rope3_Seg06 Rope3_Seg05
Rope3_Seg07 Rope3_Seg06
Rope3_Seg08 Rope3_Seg07
Rope3_Seg09 Rope3_Seg08
R_rear_hand01 Rope3_Seg09
R_rear_hand02 Rope3_Seg09
R_rear_hand03 Rope3_Seg09
Rope4_Seg01 null_rope04_connect
Rope4_Seg02 Rope4_Seg01
Rope4_Seg03 Rope4_Seg02
Rope4_Seg04 Rope4_Seg03
Rope4_Seg05 Rope4_Seg04
Rope4_Seg06 Rope4_Seg05
Rope4_Seg07 Rope4_Seg06
Rope4_Seg08 Rope4_Seg07
Rope4_Seg09 Rope4_Seg08
L_rear_hand01 Rope4_Seg09
L_rear_hand02 Rope4_Seg09
L_rear_hand03 Rope4_Seg09
[BasePosition]
#SegmentName Tx, Ty, Tz, Rx, Ry, Rz, BoneLength
MASTER 0.000000 0.000000 0.000000 -90.000000 0.000000 0.000000 10.000000 
root 0.000000 0.000000 0.000000 0.000000 0.000000 0.000000 10.000000 
chest 0.000000 0.000000 0.000000 0.000000 0.000000 0.000000 10.000000 
L_mid_tent01 0.000000 0.000000 0.000000 0.000000 0.000000 0.000000 10.000000 
R_mid_tent01 0.000000 0.000000 0.000000 0.000000 0.000000 0.000000 10.000000 
spine01 0.000000 0.000000 0.000000 0.000000 0.000000 0.000000 10.000000 
Bip01_Neck 0.000000 0.000000 0.000000 0.000000 0.000000 0.000000 10.000000 
L_humerus 0.000000 0.000000 0.000000 0.000000 0.000000 0.000000 10.000000 
R_humerus 0.000000 0.000000 0.000000 0.000000 0.000000 0.000000 10.000000 
weapon_bone 0.000000 0.000000 0.000000 0.000000 0.000000 0.000000 10.000000 
Bip01_Head 0.000000 0.000000 0.000000 0.000000 0.000000 0.000000 10.000000 
eye_left_bone 0.000000 0.000000 0.000000 0.000000 0.000000 0.000000 10.000000 
eye_right_bone 0.000000 0.000000 0.000000 0.000000 0.000000 0.000000 10.000000 
L_forearm 0.000000 0.000000 0.000000 0.000000 0.000000 0.000000 10.000000 
L_front_hand 0.000000 0.000000 0.000000 0.000000 0.000000 0.000000 10.000000 
L_weapon_bone 0.000000 0.000000 0.000000 0.000000 0.000000 0.000000 10.000000 
L_front_hand01_01 0.000000 0.000000 0.000000 0.000000 0.000000 0.000000 10.000000 
L_front_hand02_01 0.000000 0.000000 0.000000 0.000000 0.000000 0.000000 10.000000 
L_front_hand03_01 0.000000 0.000000 0.000000 0.000000 0.000000 0.000000 10.000000 
L_front_hand01_02 0.000000 0.000000 0.000000 0.000000 0.000000 0.000000 10.000000 
L_front_hand02_02 0.000000 0.000000 0.000000 0.000000 0.000000 0.000000 10.000000 
L_front_hand03_02 0.000000 0.000000 0.000000 0.000000 0.000000 0.000000 10.000000 
R_forearm 0.000000 0.000000 0.000000 0.000000 0.000000 0.000000 10.000000 
R_front_hand 0.000000 0.000000 0.000000 0.000000 0.000000 0.000000 10.000000 
R_weapon_bone 0.000000 0.000000 0.000000 0.000000 0.000000 0.000000 10.000000 
R_front_hand01_01 0.000000 0.000000 0.000000 0.000000 0.000000 0.000000 10.000000 
R_front_hand02_01 0.000000 0.000000 0.000000 0.000000 0.000000 0.000000 10.000000 
R_front_hand03_01 0.000000 0.000000 0.000000 0.000000 0.000000 0.000000 10.000000 
R_front_hand01_02 0.000000 0.000000 0.000000 0.000000 0.000000 0.000000 10.000000 
R_front_hand02_02 0.000000 0.000000 0.000000 0.000000 0.000000 0.000000 10.000000 
R_front_hand03_02 0.000000 0.000000 0.000000 0.000000 0.000000 0.000000 10.000000 
null_rope01_connect 0.000000 0.000000 0.000000 0.000000 0.000000 0.000000 10.000000 
Rope1_Seg01 0.000000 0.000000 0.000000 0.000000 0.000000 0.000000 10.000000 
Rope1_Seg02 0.000000 0.000000 0.000000 0.000000 0.000000 0.000000 10.000000 
Rope1_Seg03 0.000000 0.000000 0.000000 0.000000 0.000000 0.000000 10.000000 
Rope1_Seg04 0.000000 0.000000 0.000000 0.000000 0.000000 0.000000 10.000000 
Rope1_Seg05 0.000000 0.000000 0.000000 0.000000 0.000000 0.000000 10.000000 
Rope1_Seg06 0.000000 0.000000 0.000000 0.000000 0.000000 0.000000 10.000000 
Rope1_Seg07 0.000000 0.000000 0.000000 0.000000 0.000000 0.000000 10.000000 
Rope1_Seg09 0.000000 0.000000 0.000000 0.000000 0.000000 0.000000 10.000000 
L_mid_hand01 0.000000 0.000000 0.000000 0.000000 0.000000 0.000000 10.000000 
L_mid_hand02 0.000000 0.000000 0.000000 0.000000 0.000000 0.000000 10.000000 
L_mid_hand03 0.000000 0.000000 0.000000 0.000000 0.000000 0.000000 10.000000 
null_rope02_connect 0.000000 0.000000 0.000000 0.000000 0.000000 0.000000 10.000000 
Rope2_Seg01 0.000000 0.000000 0.000000 0.000000 0.000000 0.000000 10.000000 
Rope2_Seg02 0.000000 0.000000 0.000000 0.000000 0.000000 0.000000 10.000000 
Rope2_Seg03 0.000000 0.000000 0.000000 0.000000 0.000000 0.000000 10.000000 
Rope2_Seg04 0.000000 0.000000 0.000000 0.000000 0.000000 0.000000 10.000000 
Rope2_Seg05 0.000000 0.000000 0.000000 0.000000 0.000000 0.000000 10.000000 
Rope2_Seg06 0.000000 0.000000 0.000000 0.000000 0.000000 0.000000 10.000000 
Rope2_Seg07 0.000000 0.000000 0.000000 0.000000 0.000000 0.000000 10.000000 
Rope2_Seg09 0.000000 0.000000 0.000000 0.000000 0.000000 0.000000 10.000000 
R_mid_hand01 0.000000 0.000000 0.000000 0.000000 0.000000 0.000000 10.000000 
R_mid_hand02 0.000000 0.000000 0.000000 0.000000 0.000000 0.000000 10.000000 
R_mid_hand03 0.000000 0.000000 0.000000 0.000000 0.000000 0.000000 10.000000 
spine02 0.000000 0.000000 0.000000 0.000000 0.000000 0.000000 10.000000 
spine03 0.000000 0.000000 0.000000 0.000000 0.000000 0.000000 10.000000 
pelvis 0.000000 0.000000 0.000000 0.000000 0.000000 0.000000 10.000000 
null_rope03_connect 0.000000 0.000000 0.000000 0.000000 0.000000 0.000000 10.000000 
null_rope04_connect 0.000000 0.000000 0.000000 0.000000 0.000000 0.000000 10.000000 
Rope3_Seg01 0.000000 0.000000 0.000000 0.000000 0.000000 0.000000 10.000000 
Rope3_Seg02 0.000000 0.000000 0.000000 0.000000 0.000000 0.000000 10.000000 
Rope3_Seg03 0.000000 0.000000 0.000000 0.000000 0.000000 0.000000 10.000000 
Rope3_Seg04 0.000000 0.000000 0.000000 0.000000 0.000000 0.000000 10.000000 
Rope3_Seg05 0.000000 0.000000 0.000000 0.000000 0.000000 0.000000 10.000000 
Rope3_Seg06 0.000000 0.000000 0.000000 0.000000 0.000000 0.000000 10.000000 
Rope3_Seg07 0.000000 0.000000 0.000000 0.000000 0.000000 0.000000 10.000000 
Rope3_Seg08 0.000000 0.000000 0.000000 0.000000 0.000000 0.000000 10.000000 
Rope3_Seg09 0.000000 0.000000 0.000000 0.000000 0.000000 0.000000 10.000000 
R_rear_hand01 0.000000 0.000000 0.000000 0.000000 0.000000 0.000000 10.000000 
R_rear_hand02 0.000000 0.000000 0.000000 0.000000 0.000000 0.000000 10.000000 
R_rear_hand03 0.000000 0.000000 0.000000 0.000000 0.000000 0.000000 10.000000 
Rope4_Seg01 0.000000 0.000000 0.000000 0.000000 0.000000 0.000000 10.000000 
Rope4_Seg02 0.000000 0.000000 0.000000 0.000000 0.000000 0.000000 10.000000 
Rope4_Seg03 0.000000 0.000000 0.000000 0.000000 0.000000 0.000000 10.000000 
Rope4_Seg04 0.000000 0.000000 0.000000 0.000000 0.000000 0.000000 10.000000 
Rope4_Seg05 0.000000 0.000000 0.000000 0.000000 0.000000 0.000000 10.000000 
Rope4_Seg06 0.000000 0.000000 0.000000 0.000000 0.000000 0.000000 10.000000 
Rope4_Seg07 0.000000 0.000000 0.000000 0.000000 0.000000 0.000000 10.000000 
Rope4_Seg08 0.000000 0.000000 0.000000 0.000000 0.000000 0.000000 10.000000 
Rope4_Seg09 0.000000 0.000000 0.000000 0.000000 0.000000 0.000000 10.000000 
L_rear_hand01 0.000000 0.000000 0.000000 0.000000 0.000000 0.000000 10.000000 
L_rear_hand02 0.000000 0.000000 0.000000 0.000000 0.000000 0.000000 10.000000 
L_rear_hand03 0.000000 0.000000 0.000000 0.000000 0.000000 0.000000 10.000000 
#Beginning of Data. Separated by tabs
#Fr	Tx	Ty	Tz	Rx	Ry	Rz	SF
[MASTER]
13 0.000000 0.000000 0.000000 0.001660 0.001660 0.001660 0.000000
14 0.000000 0.000000 0.000000 0.001660 0.001660 0.001660 0.000000
[root]
13 -23.027815 -62.775105 1317.596680 -91.636627 -28.213732 -90.145355 1319.292236
14 -24.757278 -62.779972 1301.920776 -91.634346 -28.241316 -90.152489 1303.668701
[chest]
13 -84.512650 -34.090519 0.000000 -7.667782 5.030726 -179.783325 91.129311
14 -84.512650 -34.090519 0.000000 -7.565866 4.835027 -179.959412 91.129311
[L_mid_tent01]
13 27.299507 22.177471 -249.917999 -1.955833 4.610881 41.031086 252.380875
14 27.299509 22.177465 -249.917999 -2.985134 9.663003 40.941608 252.380875
[R_mid_tent01]
13 23.228794 24.509907 226.238495 -179.747101 -7.353470 42.297428 228.744751
14 23.228794 24.509907 226.238495 -178.490448 -11.421182 43.632076 228.744751
[spine01]
13 -0.361383 -0.195265 0.000000 0.536644 0.448733 13.920833 0.410763
14 -0.361383 -0.195265 0.000000 0.492507 0.444050 13.786151 0.410763
[Bip01_Neck]
13 165.484543 71.581718 0.000119 175.896118 1.177290 24.871183 180.302734
14 165.484543 71.581718 0.000119 175.896118 1.177290 24.871183 180.302734
[L_humerus]
13 -13.983130 -135.272980 -120.471481 179.096115 2.382698 -150.503479 181.680161
14 -13.983130 -135.272980 -120.471481 179.133713 1.526920 -157.360474 181.680161
[R_humerus]
13 -13.983309 -135.273102 125.287651 -178.867538 1.433027 -149.829178 184.909012
14 -13.983309 -135.273102 125.287651 -178.893631 1.460302 -150.883270 184.909012
[weapon_bone]
13 235.964890 -300.705902 0.000000 0.000000 -89.951546 -128.212341 382.234833
14 235.964890 -300.705902 0.000000 0.000000 -89.951546 -128.212341 382.234833
[Bip01_Head]
13 254.225082 123.784027 -23.994436 -1.255420 5.372981 -67.922661 283.775635
14 253.487503 126.688614 -20.590572 -1.115464 5.227394 -68.722641 284.130066
[eye_left_bone]
13 -24.626970 125.451866 -64.772606 0.000000 -90.000000 -99.840431 143.318359
14 -24.626970 125.451866 -64.772606 0.000000 -90.000000 -99.840431 143.318359
[eye_right_bone]
13 -24.626970 125.451866 64.327362 0.000000 -89.960434 80.159386 143.117676
14 -24.626970 125.451866 64.327362 0.000000 -89.972023 80.159393 143.117676
[L_forearm]
13 322.776093 0.000000 -0.000119 0.000165 0.002341 -81.952660 322.776093
14 322.776093 0.000000 -0.000119 0.000169 0.002341 -81.749908 322.776093
[L_front_hand]
13 241.149185 -0.042021 -3.300071 -179.323807 -2.161995 -8.824823 241.171753
14 241.149185 -0.042021 -3.300071 -179.229767 -2.132454 -11.259619 241.171753
[L_weapon_bone]
13 156.183838 0.000000 0.000000 0.002111 0.001027 38.114681 156.183838
14 156.183838 0.000000 0.000000 0.002099 0.001050 36.876877 156.183838
[L_front_hand01_01]
13 86.095154 20.947098 -0.655860 0.405585 -0.442306 -4.620490 88.609184
14 86.095154 20.947098 -0.655860 0.405585 -0.442306 -4.620490 88.609184
[L_front_hand02_01]
13 86.935165 -11.437475 24.513514 116.959450 3.630817 1.495453 91.046425
14 86.935165 -11.437475 24.513514 116.959450 3.630817 1.495453 91.046425
[L_front_hand03_01]
13 86.637497 -14.123976 -20.424902 -118.420097 -4.656303 -0.152527 90.126129
14 86.637497 -14.123976 -20.424902 -118.420097 -4.656303 -0.152527 90.126129
[L_front_hand01_02]
13 71.020905 -0.000179 0.000030 0.001534 0.001777 -8.378848 71.020905
14 71.020905 -0.000179 0.000030 0.001534 0.001777 -8.378851 71.020905
[L_front_hand02_02]
13 71.020927 -0.000119 0.000060 0.001534 0.001777 -8.378848 71.020927
14 71.020927 -0.000119 0.000060 0.001534 0.001777 -8.378851 71.020927
[L_front_hand03_02]
13 71.020905 -0.000060 0.000060 0.001534 0.001777 -8.378848 71.020905
14 71.020905 -0.000060 0.000060 0.001534 0.001777 -8.378851 71.020905
[R_forearm]
13 322.776428 -0.000060 0.000030 0.208490 -0.043269 -79.432045 322.776428
14 322.776428 -0.000060 0.000030 0.206029 -0.047282 -78.078598 322.776428
[R_front_hand]
13 238.847015 -0.006795 2.210259 -0.812749 1.521621 -16.782309 238.857239
14 238.847015 -0.006795 2.210259 -0.967562 1.429099 -22.781828 238.857239
[R_weapon_bone]
13 155.664093 0.002503 -0.000030 0.002747 0.002450 -137.059357 155.664078
14 155.664093 0.002503 -0.000030 0.002754 0.002443 -136.756271 155.664078
[R_front_hand01_01]
13 87.624611 14.231146 22.918642 -116.960213 3.496675 -1.324139 91.683487
14 87.624611 14.231146 22.918642 -116.960213 3.496675 -1.324139 91.683487
[R_front_hand02_01]
13 89.356956 14.367283 -19.491137 118.419647 -4.257089 0.609827 92.579636
14 89.356956 14.367283 -19.491137 118.419647 -4.257089 0.609827 92.579636
[R_front_hand03_01]
13 87.286232 -22.307278 -0.143439 -0.387970 -0.231462 4.232001 90.091743
14 87.286232 -22.307278 -0.143439 -0.387970 -0.231462 4.232000 90.091743
[R_front_hand01_02]
13 71.020905 0.000060 0.000119 0.001777 0.001534 8.377220 71.020905
14 71.020905 0.000060 0.000119 0.001777 0.001534 8.377221 71.020905
[R_front_hand02_02]
13 71.020844 -0.000030 -0.000119 0.001777 0.001534 8.377220 71.020836
14 71.020844 -0.000030 -0.000119 0.001777 0.001534 8.377221 71.020836
[R_front_hand03_02]
13 71.020905 0.000000 0.000030 0.001777 0.001534 8.377220 71.020905
14 71.020905 0.000000 0.000030 0.001777 0.001534 8.377221 71.020905
[null_rope01_connect]
13 328.732483 0.000000 -0.000238 -131.265656 -83.377357 -151.594284 328.732483
14 328.732483 0.000000 -0.000238 -123.782738 -78.345444 -159.093262 328.732483
[Rope1_Seg01]
13 0.000000 0.000000 0.000000 -45.055553 33.250893 -79.732529 0.000000
14 0.000000 0.000000 0.000000 -38.164867 28.957106 -77.352753 0.000000
[Rope1_Seg02]
13 139.999863 -0.000179 0.000000 -18.828127 8.658292 22.094734 139.999863
14 139.999863 -0.000179 0.000000 -18.299694 9.589156 22.172129 139.999863
[Rope1_Seg03]
13 139.999924 0.000060 -0.000060 -8.902018 -1.544955 71.989410 139.999924
14 139.999924 0.000060 -0.000060 -7.255414 3.645027 67.645142 139.999924
[Rope1_Seg04]
13 139.999924 -0.000060 -0.000119 11.979547 -1.978076 28.302366 139.999924
14 139.999924 -0.000060 -0.000119 8.620163 -2.676837 27.610987 139.999924
[Rope1_Seg05]
13 139.999832 0.000119 -0.000060 15.358459 7.100029 13.585408 139.999832
14 139.999832 0.000119 -0.000060 10.872479 0.919129 15.181394 139.999832
[Rope1_Seg06]
13 139.999954 0.000119 -0.000060 9.414120 5.856803 6.554159 139.999954
14 139.999954 0.000119 -0.000060 10.905439 2.529739 10.014866 139.999954
[Rope1_Seg07]
13 139.999985 0.000060 0.000000 4.578685 3.140531 2.989504 139.999985
14 139.999985 0.000060 0.000000 6.779965 2.253073 4.853933 139.999985
[Rope1_Seg09]
13 121.602913 0.000119 -0.000089 -89.793175 -1.359789 0.847147 121.602913
14 121.602913 0.000119 -0.000089 -89.793175 -1.359789 0.847147 121.602913
[L_mid_hand01]
13 103.859421 1.038730 8.195221 104.366898 -2.421568 -1.149032 104.187431
14 103.859421 1.038730 8.195221 104.394287 -4.293092 -1.633497 104.187431
[L_mid_hand02]
13 105.572853 -4.139662 -10.864139 -135.786102 5.891682 -5.427630 106.211075
14 105.572853 -4.139662 -10.864139 -135.946564 7.240659 -6.824872 106.211075
[L_mid_hand03]
13 104.641464 17.579376 -3.913581 -18.755919 0.592747 5.640763 106.179977
14 104.641464 17.579376 -3.913581 -18.729256 1.210565 7.472278 106.179977
[null_rope02_connect]
13 328.732849 0.000179 -0.000119 -95.539902 83.815918 8.628266 328.732849
14 328.732849 0.000179 -0.000119 -107.572281 79.847656 -1.941162 328.732849
[Rope2_Seg01]
13 0.000010 0.000090 0.000073 107.780014 19.526020 -85.619171 0.000116
14 0.000014 0.000091 0.000069 104.042938 16.077574 -82.562096 0.000116
[Rope2_Seg02]
13 139.999741 -0.000060 -0.000119 48.607559 -22.787277 -46.941891 139.999756
14 139.999741 -0.000060 -0.000119 51.127453 -24.472509 -47.701508 139.999756
[Rope2_Seg03]
13 140.000107 0.000030 0.000000 21.005417 -56.496792 -35.588657 140.000107
14 140.000107 0.000030 0.000000 12.615196 -48.468121 -21.429304 140.000107
[Rope2_Seg04]
13 139.999802 0.000000 -0.000060 -11.019740 -25.244658 -13.292542 139.999802
14 139.999802 0.000000 -0.000060 -11.397687 -34.918537 -17.080078 139.999802
[Rope2_Seg05]
13 139.999985 -0.000060 0.000119 -8.338999 -8.555785 -7.470592 139.999985
14 139.999985 -0.000060 0.000119 -9.884501 -10.001134 -8.529752 139.999985
[Rope2_Seg06]
13 139.999893 -0.000030 -0.000119 -3.625639 -2.760410 -3.118714 139.999893
14 139.999893 -0.000030 -0.000119 -4.156337 -2.956889 -3.475830 139.999893
[Rope2_Seg07]
13 139.999893 0.000060 -0.000060 -2.273150 -1.511232 -1.942344 139.999893
14 139.999893 0.000060 -0.000060 -2.537354 -1.549479 -2.121194 139.999893
[Rope2_Seg09]
13 121.338966 0.000089 -0.000060 33.793236 -1.359788 -0.847141 121.338966
14 121.338966 0.000089 -0.000060 33.793236 -1.359788 -0.847141 121.338966
[R_mid_hand01]
13 104.680779 11.144459 -10.335981 -47.166042 5.964268 8.233263 105.778534
14 104.680779 11.144459 -10.335981 -47.009083 7.397055 9.573327 105.778534
[R_mid_hand02]
13 104.070427 2.443552 8.231699 75.550705 -6.213388 2.132293 104.424065
14 104.070427 2.443552 8.231699 75.492203 -8.101108 2.625583 104.424065
[R_mid_hand03]
13 106.028137 -11.221827 -5.996406 -164.587372 3.590652 -10.082821 106.788818
14 106.028137 -11.221827 -5.996406 -164.713638 4.104003 -11.970146 106.788818
[spine02]
13 129.756927 0.001550 0.000119 -0.206055 -4.242097 -4.988397 129.756927
14 129.756927 0.001550 0.000119 -0.198960 -4.233462 -5.090217 129.756927
[spine03]
13 78.709892 0.070445 -3.960413 1.189544 2.620245 3.249948 78.809502
14 78.723763 0.068029 -3.825051 1.266733 2.390815 4.164739 78.816666
[pelvis]
13 169.435242 0.051022 0.000000 0.007290 0.669632 -2.421904 169.435257
14 169.435242 0.051022 0.000000 0.008183 0.776029 -2.506009 169.435257
[null_rope03_connect]
13 -1.257226 -2.466202 137.391083 0.000000 -89.666618 108.443611 137.418976
14 -1.257226 -2.466202 137.391083 0.000000 -89.643921 107.879181 137.418976
[null_rope04_connect]
13 -1.259640 -2.480268 -137.844437 0.000000 -89.666618 108.443611 137.872513
14 -1.259640 -2.480268 -137.844437 0.000000 -89.643921 107.879181 137.872513
[Rope3_Seg01]
13 0.000000 0.000000 0.000000 175.137970 -59.447960 -28.162125 0.000000
14 0.000000 0.000000 0.000000 136.182663 -61.983845 2.536689 0.000000
[Rope3_Seg02]
13 139.999924 -0.000119 0.000060 -6.568644 3.108935 -8.519536 139.999924
14 139.999924 -0.000119 0.000060 -5.628126 3.515861 -4.739992 139.999924
[Rope3_Seg03]
13 139.999924 -0.000119 0.000119 -16.539152 7.179939 -14.659932 139.999924
14 139.999924 -0.000119 0.000119 -9.821548 6.168044 -6.865141 139.999924
[Rope3_Seg04]
13 139.999924 0.000119 0.000000 -36.617474 16.583303 -22.285202 139.999924
14 139.999924 0.000119 0.000000 -16.151150 10.750010 -9.254753 139.999924
[Rope3_Seg05]
13 139.999924 -0.000238 0.000060 -22.894079 22.710381 -7.659097 139.999924
14 139.999924 -0.000238 0.000060 -20.099869 18.476286 -8.842038 139.999924
[Rope3_Seg06]
13 139.999893 -0.000119 -0.000060 -4.719056 19.985954 8.241086 139.999893
14 139.999893 -0.000119 -0.000060 -14.471052 35.853043 0.309763 139.999893
[Rope3_Seg07]
13 139.999771 0.000060 -0.000119 1.737437 20.366056 14.744654 139.999771
14 139.999771 0.000060 -0.000119 0.303929 24.238609 7.345903 139.999771
[Rope3_Seg08]
13 139.999985 -0.000060 0.000000 1.876404 10.535895 6.192893 139.999985
14 139.999985 -0.000060 0.000000 1.503385 9.025565 2.616153 139.999985
[Rope3_Seg09]
13 90.185997 -0.000179 -0.000060 89.793228 -1.359877 -0.847183 90.185997
14 90.185997 -0.000179 -0.000060 89.793228 -1.359877 -0.847183 90.185997
[R_rear_hand01]
13 103.366196 -6.073594 -10.757982 -156.049316 6.070419 -2.795869 104.101845
14 103.366196 -6.073594 -10.757982 -156.102097 6.291094 -3.294051 104.101845
[R_rear_hand02]
13 100.509819 12.039542 -7.992327 -38.708435 1.958051 5.461186 101.543350
14 100.509819 12.039542 -7.992327 -38.693447 2.294945 5.884003 101.543350
[R_rear_hand03]
13 101.539970 5.215704 5.435467 84.307625 -2.361032 4.099037 101.819031
14 101.539970 5.215704 5.435467 84.306572 -2.901705 4.150926 101.819031
[Rope4_Seg01]
13 0.000010 0.000038 -0.000114 64.137863 -53.251003 -116.440475 0.000121
14 0.000010 0.000038 -0.000114 64.388969 -54.810238 -116.003197 0.000121
[Rope4_Seg02]
13 139.999985 0.000060 0.000119 4.814097 -14.397907 3.769944 139.999985
14 139.999985 0.000060 0.000119 4.221848 -12.982942 3.491672 139.999985
[Rope4_Seg03]
13 139.999924 0.000000 -0.000238 16.009100 -24.204149 9.173613 139.999924
14 139.999924 0.000000 -0.000238 13.376515 -22.046549 8.193415 139.999924
[Rope4_Seg04]
13 139.999985 0.000000 0.000119 27.918781 -20.937876 15.127798 139.999985
14 139.999985 0.000000 0.000119 26.938713 -22.460440 14.292481 139.999985
[Rope4_Seg05]
13 139.999802 -0.000060 -0.000119 18.613043 -5.509372 15.247069 139.999802
14 139.999802 -0.000060 -0.000119 19.807785 -7.115649 15.262555 139.999802
[Rope4_Seg06]
13 139.999924 0.000000 0.000060 15.527946 2.197065 21.967117 139.999924
14 139.999924 0.000000 0.000060 15.741891 1.349302 20.866713 139.999924
[Rope4_Seg07]
13 139.999802 0.000000 0.000000 9.158338 9.371844 24.036922 139.999802
14 139.999802 0.000000 0.000000 10.173478 9.362777 24.946684 139.999802
[Rope4_Seg08]
13 139.999924 0.000000 0.000119 0.052810 5.287039 10.231499 139.999924
14 139.999924 0.000000 0.000119 0.347792 5.589783 10.928641 139.999924
[Rope4_Seg09]
13 90.185791 0.000060 0.000060 -135.617828 2.228885 0.850567 90.185791
14 90.185791 0.000060 0.000060 -135.617828 2.228885 0.850567 90.185791
[L_rear_hand01]
13 101.696655 -8.392275 -7.654577 -38.746338 0.246096 177.290207 102.329041
14 101.696655 -8.392275 -7.654577 -38.746677 -0.110138 176.843857 102.329041
[L_rear_hand02]
13 102.726799 -1.568258 5.773216 84.315163 -1.142796 176.247437 102.900848
14 102.726799 -1.568258 5.773216 84.314537 -0.574387 176.194839 102.900848
[L_rear_hand03]
13 104.552910 9.721220 -10.420293 -155.747955 -4.630845 179.564758 105.519653
14 104.552910 9.721220 -10.420293 -155.787659 -4.864427 -179.911667 105.519653
